<svg xmlns="http://www.w3.org/2000/svg" width="183" height="24" viewBox="0 0 183 24" fill="none"><path d="M34.5337 24C39.349 24 41.056 21.2229 41.056 17.3248V6.29299H37.7184V7.59236H37.6675C36.6484 6.59873 35.2981 6.11465 33.9223 6.11465C30.6102 6.11465 28.1643 8.73885 28.1643 12.4076C28.1643 16.0255 30.6866 18.5223 34.1006 18.5223C35.5783 18.5223 36.8267 18.0127 37.7184 17.0955H37.7694V18.3439C37.7694 19.8217 36.5974 21.0955 34.279 21.0955C32.6484 21.0955 31.4509 20.6115 30.228 19.9236L29.4382 22.7516C30.9159 23.5924 32.6229 24 34.5337 24ZM34.7121 15.5159C32.9286 15.5159 31.5528 14.2675 31.5528 12.3057C31.5528 10.4204 32.8522 9.12102 34.7121 9.12102C36.4955 9.12102 37.8458 10.3949 37.8458 12.2803C37.8458 14.1656 36.5465 15.5159 34.7121 15.5159Z" fill="black"></path><path d="M43.72 18.7516H47.0576V12.9936C47.0576 11.1083 48.1532 9.73248 50.2169 9.73248C50.4207 9.73248 50.7519 9.73248 51.1086 9.75796V6.11465H50.8538C49.4016 6.11465 48.0513 6.82803 47.1086 8.10191H47.0576V6.29299H43.72V18.7516Z" fill="black"></path><path d="M58.3028 18.9809C62.1755 18.9809 64.9016 16.3312 64.9016 12.535C64.9016 8.71338 62.1755 6.11465 58.3028 6.11465C54.3283 6.11465 51.6786 8.81529 51.6786 12.535C51.6786 16.2548 54.3283 18.9809 58.3028 18.9809ZM58.3028 15.9745C56.392 15.9745 55.0672 14.4713 55.0672 12.535C55.0672 10.5732 56.3665 9.09554 58.3028 9.09554C60.1372 9.09554 61.513 10.4968 61.513 12.535C61.513 14.5732 60.0863 15.9745 58.3028 15.9745Z" fill="black"></path><path d="M69.319 18.7516H72.1979L74.4145 11.1847H74.44L76.682 18.7516H79.561L83.7903 6.29299H80.4527L78.0833 13.9108H78.0323L75.7903 6.29299H73.1151L70.8986 13.9108H70.8731L68.4782 6.29299H65.1151L69.319 18.7516Z" fill="black"></path><path d="M95.2652 18.9809C96.9468 18.9809 97.762 18.6242 98.5518 18.1911L97.7111 15.5159C97.1506 15.7962 96.5391 15.949 96.1315 15.949C95.3417 15.949 95.0614 15.4395 95.0614 14.3439V9.07006H98.4245V6.29299H95.0614V1.88535L91.7238 2.24204V6.29299H90.2461V9.07006H91.7238V14.828C91.7238 17.6306 93.1251 18.9809 95.2652 18.9809Z" fill="black"></path><path d="M100.313 18.7516H103.651V12.4586C103.651 10.2166 104.772 9.09554 106.555 9.09554C108.135 9.09554 108.976 9.85987 108.976 12.1274V18.7516H112.313V11.2866C112.313 7.46497 110.403 6.11465 107.753 6.11465C106.122 6.11465 104.696 6.67516 103.676 7.79618H103.651V0H100.313V18.7516Z" fill="black"></path><path d="M126.499 12.4076C126.499 8.76433 124.053 6.11465 120.537 6.11465C116.843 6.11465 114.218 8.71338 114.218 12.5096C114.218 16.4076 116.919 18.9809 120.741 18.9809C123.518 18.9809 125.123 17.9618 126.167 16.6115L124.002 14.5987C123.339 15.414 122.371 16 120.97 16C119.289 16 118.091 15.1083 117.683 13.6051H126.422C126.448 13.4013 126.499 12.8153 126.499 12.4076ZM120.511 9.01911C121.964 9.01911 122.855 9.88535 123.187 11.2102H117.709C118.091 9.78344 119.161 9.01911 120.511 9.01911Z" fill="black"></path><path d="M128.579 18.7516H131.916V12.9936C131.916 11.1083 133.012 9.73248 135.076 9.73248C135.279 9.73248 135.611 9.73248 135.967 9.75796V6.11465H135.712C134.26 6.11465 132.91 6.82803 131.967 8.10191H131.916V6.29299H128.579V18.7516Z" fill="black"></path><path d="M142.523 18.9809C144.153 18.9809 145.402 18.3694 146.268 17.2484L146.319 17.2739V18.7516H149.504V6.29299H146.166V7.71975L146.115 7.74522C145.223 6.67516 143.899 6.11465 142.446 6.11465C139.109 6.11465 136.586 8.78981 136.586 12.5605C136.586 16.4076 139.109 18.9809 142.523 18.9809ZM143.16 15.9745C141.274 15.9745 139.975 14.5732 139.975 12.586C139.975 10.4459 141.351 9.09554 143.16 9.09554C144.943 9.09554 146.319 10.5732 146.319 12.586C146.319 14.6242 144.867 15.9745 143.16 15.9745Z" fill="black"></path><path d="M152.166 23.7962H155.504V17.3758L155.555 17.3503C156.421 18.3949 157.644 18.9809 159.198 18.9809C162.663 18.9809 165.186 16.4076 165.186 12.5605C165.186 8.78981 162.663 6.11465 159.3 6.11465C157.772 6.11465 156.447 6.67516 155.555 7.71975H155.504V6.29299H152.166V23.7962ZM158.612 15.9745C156.778 15.9745 155.351 14.6242 155.351 12.586C155.351 10.5732 156.676 9.09554 158.587 9.09554C160.37 9.09554 161.797 10.4459 161.797 12.586C161.797 14.5732 160.472 15.9745 158.612 15.9745Z" fill="black"></path><path d="M167.989 23.7962H171.377L178.078 6.29299H174.69L171.862 13.9363H171.811L168.779 6.29299H165.212L170.206 17.9873L167.989 23.7962Z" fill="black"></path><path fill-rule="evenodd" clip-rule="evenodd" d="M2.07298 14.5579C1.52069 14.5579 1.06788 15.0068 1.12043 15.5566C1.57395 20.3019 5.22275 24 9.65677 24C14.0908 24 17.7396 20.3019 18.1931 15.5566C18.2457 15.0068 17.7928 14.5579 17.2406 14.5579H2.07298Z" fill="#FFC329"></path><path d="M9.66772 9.01298C9.90294 9.01295 11.4301 7.41151 12.0157 5.06997C12.4793 3.21657 12.4046 0 9.66772 0C7.25681 0.0202087 6.68886 2.54509 7.32038 5.06997C7.90605 7.41151 9.4422 9.01298 9.66772 9.01298Z" fill="#025B4B"></path><path d="M8.20175 12.9136C8.36805 12.7473 8.31553 10.535 7.07393 8.46517C6.09117 6.82683 3.76388 4.6052 1.82861 6.54047C0.138134 8.25953 1.52189 10.4465 3.7538 11.7853C5.82365 13.0269 8.04229 13.0731 8.20175 12.9136Z" fill="#025B4B"></path><path d="M11.1209 12.9228C11.2872 13.0891 13.4995 13.0365 15.5693 11.7949C17.2077 10.8122 19.4293 8.48489 17.494 6.54962C15.775 4.85914 13.588 6.2429 12.2492 8.47481C11.0076 10.5447 10.9614 12.7633 11.1209 12.9228Z" fill="#025B4B"></path></svg>